<svg width="128" height="78" viewBox="0 0 128 78" fill="none" xmlns="http://www.w3.org/2000/svg">
<g clip-path="url(#clip0_1_811)">
<path fill-rule="evenodd" clip-rule="evenodd" d="M111.884 19.7092H128.089L126.496 28.3655H119.917L118.392 36.5369H124.28L122.825 44.7089H116.938L110.637 80.0968H101.012L111.884 19.7092V19.7092ZM108.421 19.7092H98.5879L92.6313 51.4957C92.2166 53.6431 91.8699 55.027 91.5934 55.6502C91.2467 56.2046 90.8306 56.4811 90.2074 56.4811C89.6544 56.4811 89.3077 56.2046 89.2376 55.7196C89.1688 55.1653 89.3077 53.9877 89.6537 52.0487L95.7472 19.7086H85.8439L81.0649 45.262C80.1652 50.1098 79.6108 53.2957 79.4726 54.8186C79.4038 56.3428 79.6108 57.7969 80.2353 59.1815C80.7884 60.5674 81.8965 61.6748 83.4888 62.5064C85.0825 63.4061 86.952 63.8222 89.2369 63.8222C91.3142 63.8222 93.1149 63.4756 94.7773 62.7141C96.4398 62.0215 97.8244 60.9134 99.002 59.5275C100.18 58.1429 101.011 56.7576 101.426 55.4411C101.911 54.1266 102.396 51.841 103.018 48.5161L108.421 19.7092ZM68.186 47.4802C68.6008 42.5629 69.224 36.607 70.125 29.4048C67.5628 37.6456 65.8309 43.6009 64.9306 47.4802H68.186ZM78.2269 19.7092L75.1798 62.9219H66.1081L67.0779 55.0971H63.6154L61.5375 62.9219H51.7043L65.5544 19.7092H78.2269V19.7092ZM57.729 19.7092H49.4187L45.8173 39.1692L43.8783 19.7092H35.6375L27.5349 62.9219H35.8452L39.5154 43.2555L40.9695 62.9219H49.6258L57.729 19.7092V19.7092ZM31.2058 20.0559L23.0337 39.5846L25.0422 62.9219H15.9698L14.308 47.4802L11.3999 62.9219H1.91135L11.8146 -0.0966797H21.3018L16.454 34.3909L22.4794 20.0559H31.2058V20.0559Z" fill="#00ACEC"/>
</g>
<defs>
<clipPath id="clip0_1_811">
<rect width="128" height="78" fill="white"/>
</clipPath>
</defs>
</svg>
