<svg width="140" height="38" viewBox="0 0 140 38" fill="none" xmlns="http://www.w3.org/2000/svg">
<path fill-rule="evenodd" clip-rule="evenodd" d="M12.0081 13.1584C14.8218 10.6461 16.7312 10.3439 20.7005 10.3439V19.0872C19.9974 19.0371 19.2937 18.9862 18.5906 18.9862C12.5107 18.9862 12.4104 22.9555 12.3596 24.6638V36.9238H2.0584V10.7463H12.0073V13.1584H12.0081ZM22.4938 18.7357C22.8954 16.5248 23.4481 13.7612 27.1668 11.8016C30.0815 10.2945 33.7995 10.0432 36.5129 10.0432C48.874 10.0432 48.874 16.4246 48.874 19.5397V33.7085C48.874 35.4175 49.025 35.87 49.7782 36.9246H39.578V34.9149C38.2713 35.8191 35.86 37.5274 30.9857 37.5274C24.4533 37.5274 21.5895 33.5581 21.5895 29.1364C21.5895 27.5785 21.941 25.4184 23.8004 23.5591C26.1616 21.147 28.9753 20.7454 33.5482 20.1425C36.412 19.7401 37.5174 19.4896 39.0754 19.0371C39.0252 17.2787 38.5226 16.0723 35.5579 16.0723C33.1966 16.0723 32.5429 16.6759 32.1914 18.4844L22.4938 18.7357V18.7357ZM35.9595 25.8208C35.1054 26.0212 34.2011 26.2232 33.2969 26.5239C31.2864 27.3279 31.1862 28.5343 31.1862 28.8357C31.1862 29.5395 31.7898 30.8461 33.7486 30.8461C35.2063 30.8461 37.6177 29.8917 38.5226 27.8813C39.0245 26.7766 39.0245 25.7206 39.0245 24.8163C38.02 25.1671 37.0148 25.5194 35.9595 25.8208V25.8208ZM56.2503 27.4281C57.2047 28.3817 58.1598 29.2366 60.1695 30.0907C62.0288 30.8447 63.435 30.9449 64.2898 30.9449C65.5456 30.9449 67.0033 30.4931 67.0033 29.3376C67.0033 28.0309 65.4454 27.7796 64.3901 27.6286C63.4858 27.4775 61.325 27.126 58.9638 26.4222C56.5517 25.7191 51.7785 24.3123 51.7785 18.7851C51.7785 16.4732 52.8338 14.3633 54.391 12.8555C57.456 9.94155 61.8778 9.84059 63.586 9.84059C65.5456 9.84059 67.5052 10.0919 69.4648 10.5444C73.0317 11.3985 74.5395 12.504 75.9964 13.6094L70.4191 18.6841C68.6607 17.5787 66.5 16.2219 63.7364 16.2219C63.3347 16.2219 61.5255 16.2219 61.5255 17.5787C61.5255 18.533 62.2293 18.6841 65.696 19.539C70.3182 20.5936 71.4243 20.8449 72.6801 21.4978C75.2934 22.9054 76.7503 25.3167 76.7503 28.2815C76.7503 33.4071 72.4804 37.9283 64.3901 37.9283C56.9534 37.9283 52.6827 34.5118 50.4718 32.7033L56.2503 27.4281V27.4281ZM105.719 29.9404C105.065 31.3473 104.513 32.4527 103.207 33.7586C101.75 35.2664 98.3819 37.929 92.3536 37.929C83.7614 37.929 78.4855 32.1012 78.4855 23.7094C78.4855 19.3886 80.0434 15.8711 82.2035 13.6602C85.8205 9.89216 90.9954 9.69097 92.9564 9.69097C94.7155 9.69097 99.6893 9.74109 103.659 13.7612C104.664 14.7664 105.116 15.4695 105.719 16.474L97.8307 20.9458C97.177 18.6347 95.9212 16.9766 93.4583 16.9766C90.2938 16.9766 88.7359 20.091 88.7359 24.0108C88.7359 26.0714 89.1375 29.9898 93.207 29.9898C96.3715 29.9898 97.3775 26.9756 97.83 25.6181L105.719 29.9404V29.9404ZM107.868 1.40018H118.169V13.5099C119.123 12.3536 121.134 9.7912 126.51 9.7912C129.474 9.7912 132.137 10.7957 133.744 12.4037C135.907 14.6647 136.005 17.5787 136.106 19.8912V36.9238H125.806V22.052C125.756 20.8957 125.705 18.3333 122.088 18.3333C118.269 18.3333 118.22 21.0461 118.22 22.2524V36.9238H107.868V1.40018V1.40018ZM133.447 1.42778H134.885C135.739 1.42778 136.162 1.78876 136.162 2.51143C136.162 3.23338 135.703 3.53335 135.22 3.61251L136.302 5.30408H135.659L134.593 3.62196H134.012V5.30408H133.447V1.42778V1.42778ZM134.012 3.10991H134.682C135.22 3.10991 135.599 3.03074 135.599 2.51071C135.599 2.1047 135.237 1.93765 134.735 1.93765H134.013V3.10991H134.012ZM134.646 0.0703164C135.079 0.0696469 135.508 0.15442 135.908 0.319785C136.308 0.48515 136.672 0.727852 136.978 1.03398C137.284 1.3401 137.527 1.70364 137.692 2.10374C137.858 2.50384 137.942 2.93264 137.942 3.36557C137.942 3.79849 137.858 4.2273 137.692 4.6274C137.527 5.0275 137.284 5.39103 136.978 5.69716C136.672 6.00328 136.308 6.24598 135.908 6.41135C135.508 6.57671 135.079 6.66149 134.646 6.66082C134.214 6.66149 133.785 6.57671 133.385 6.41135C132.985 6.24598 132.621 6.00328 132.315 5.69716C132.009 5.39103 131.766 5.0275 131.601 4.6274C131.435 4.2273 131.351 3.79849 131.351 3.36557C131.351 2.93264 131.435 2.50384 131.601 2.10374C131.766 1.70364 132.009 1.3401 132.315 1.03398C132.621 0.727852 132.985 0.48515 133.385 0.319785C133.785 0.15442 134.214 0.0696469 134.646 0.0703164V0.0703164ZM134.646 6.15023C136.135 6.15023 137.377 4.88137 137.377 3.36629C137.377 1.85122 136.135 0.582358 134.646 0.582358C133.157 0.582358 131.914 1.85122 131.914 3.36629C131.914 4.88137 133.157 6.15023 134.646 6.15023Z" fill="#CC2229"/>
</svg>
