<svg width="42" height="20" viewBox="0 0 42 20" fill="none" xmlns="http://www.w3.org/2000/svg">
<path d="M0.82 1.576V0.735999H5.972L14.036 17.872L13.112 20H9.472L0.82 1.576ZM16.64 11.908H16.528L14.652 16.444L12.244 11.292L16.64 0.735999H21.96V20H16.64V11.908ZM0.82 4.348L5.972 15.324V20H0.82V4.348Z" fill="#2D4872"/>
<path d="M25.5934 0.735999H31.1934V20H25.5934V0.735999ZM32.3694 9.724H33.0414C33.6388 9.724 34.0774 9.70533 34.3574 9.668C34.6561 9.612 34.8894 9.5 35.0574 9.332C35.2254 9.18267 35.3281 8.968 35.3654 8.688C35.4214 8.38933 35.4494 7.95067 35.4494 7.372C35.4494 6.79333 35.4214 6.364 35.3654 6.084C35.3281 5.78533 35.2254 5.552 35.0574 5.384C34.8894 5.23467 34.6561 5.14133 34.3574 5.104C34.0588 5.048 33.6201 5.02 33.0414 5.02H32.3694V0.735999H34.6934C36.0748 0.735999 37.1948 0.875999 38.0534 1.156C38.9308 1.41733 39.5934 1.828 40.0414 2.388C40.4708 2.91067 40.7601 3.57333 40.9094 4.376C41.0588 5.16 41.1334 6.15867 41.1334 7.372C41.1334 8.52933 41.0588 9.49067 40.9094 10.256C40.7788 11.0213 40.5081 11.6653 40.0974 12.188C39.6308 12.7853 38.9588 13.2427 38.0814 13.56C37.2228 13.8587 36.0934 14.008 34.6934 14.008H32.3694V9.724Z" fill="#6CAC3D"/>
</svg>
